<svg id="visual" viewBox="0 0 900 100" width="900" height="100" xmlns="http://www.w3.org/2000/svg" xmlns:xlink="http://www.w3.org/1999/xlink" version="1.1"><path d="M0 75L11.5 76C23 77 46 79 69 78.3C92 77.7 115 74.3 138.2 74.2C161.3 74 184.7 77 207.8 76.3C231 75.7 254 71.3 277 70.8C300 70.3 323 73.7 346 74.7C369 75.7 392 74.3 415.2 74C438.3 73.7 461.7 74.3 484.8 75.5C508 76.7 531 78.3 554 76.7C577 75 600 70 623 71C646 72 669 79 692.2 79.2C715.3 79.3 738.7 72.7 761.8 72.7C785 72.7 808 79.3 831 78.8C854 78.3 877 70.7 888.5 66.8L900 63L900 101L888.5 101C877 101 854 101 831 101C808 101 785 101 761.8 101C738.7 101 715.3 101 692.2 101C669 101 646 101 623 101C600 101 577 101 554 101C531 101 508 101 484.8 101C461.7 101 438.3 101 415.2 101C392 101 369 101 346 101C323 101 300 101 277 101C254 101 231 101 207.8 101C184.7 101 161.3 101 138.2 101C115 101 92 101 69 101C46 101 23 101 11.5 101L0 101Z" fill="#e7e5e4" stroke-linecap="round" stroke-linejoin="miter"></path></svg>