<svg id="visual" viewBox="0 0 900 100" width="900" height="100" xmlns="http://www.w3.org/2000/svg" xmlns:xlink="http://www.w3.org/1999/xlink" version="1.1"><path d="M0 66L11.5 67C23 68 46 70 69 71C92 72 115 72 138.2 71.2C161.3 70.3 184.7 68.7 207.8 69C231 69.3 254 71.7 277 72.7C300 73.7 323 73.3 346 75.2C369 77 392 81 415.2 83.2C438.3 85.3 461.7 85.7 484.8 82C508 78.3 531 70.7 554 68.2C577 65.7 600 68.3 623 68.3C646 68.3 669 65.7 692.2 66C715.3 66.3 738.7 69.7 761.8 71.7C785 73.7 808 74.3 831 76.5C854 78.7 877 82.3 888.5 84.2L900 86L900 101L888.5 101C877 101 854 101 831 101C808 101 785 101 761.8 101C738.7 101 715.3 101 692.2 101C669 101 646 101 623 101C600 101 577 101 554 101C531 101 508 101 484.8 101C461.7 101 438.3 101 415.2 101C392 101 369 101 346 101C323 101 300 101 277 101C254 101 231 101 207.8 101C184.7 101 161.3 101 138.2 101C115 101 92 101 69 101C46 101 23 101 11.5 101L0 101Z" fill="#e7e5e4" stroke-linecap="round" stroke-linejoin="miter"></path></svg>