<svg id="visual" viewBox="0 0 900 100" width="900" height="100" xmlns="http://www.w3.org/2000/svg" xmlns:xlink="http://www.w3.org/1999/xlink" version="1.1"><path d="M0 66L11.5 67C23 68 46 70 69 71.3C92 72.7 115 73.3 138.2 74.7C161.3 76 184.7 78 207.8 76.3C231 74.7 254 69.3 277 70.2C300 71 323 78 346 80.8C369 83.7 392 82.3 415.2 79C438.3 75.7 461.7 70.3 484.8 67.8C508 65.3 531 65.7 554 69.2C577 72.7 600 79.3 623 79.3C646 79.3 669 72.7 692.2 69.2C715.3 65.7 738.7 65.3 761.8 66.7C785 68 808 71 831 70.8C854 70.7 877 67.3 888.5 65.7L900 64L900 101L888.5 101C877 101 854 101 831 101C808 101 785 101 761.8 101C738.7 101 715.3 101 692.2 101C669 101 646 101 623 101C600 101 577 101 554 101C531 101 508 101 484.8 101C461.7 101 438.3 101 415.2 101C392 101 369 101 346 101C323 101 300 101 277 101C254 101 231 101 207.8 101C184.7 101 161.3 101 138.2 101C115 101 92 101 69 101C46 101 23 101 11.5 101L0 101Z" fill="#e7e5e4" stroke-linecap="round" stroke-linejoin="miter"></path></svg>